# This file uses centimeters as units for non-parametric coordinates.

mtllib bat_obj.mtl
g default
v -1.341167 44.820822 -83.466318
v -4.401085 46.367155 -83.058859
v -6.431496 47.089048 -80.490412
v -5.975716 42.408484 -77.648314
v -2.309875 49.140732 -85.661871
v -4.121052 51.775824 -83.253927
v -3.524456 56.526169 -79.807596
v -3.816299 54.045282 -81.649183
v -3.748123 57.596792 -77.873613
v -9.752186 62.377413 -80.950563
v -9.363468 61.472078 -81.551165
v -5.480114 58.190170 -73.962290
v -9.920799 62.342180 -79.679834
v -10.801746 51.037039 -72.906229
v -8.883369 46.206564 -77.012918
v -8.480873 50.489603 -77.932337
v -8.991241 53.112223 -74.701752
v -4.943699 51.722158 -76.866510
v -6.385174 52.803299 -74.535156
v -8.921314 55.683943 -74.110659
v -9.084000 59.174356 -76.201319
v -6.956783 52.675333 -80.974512
v -7.148491 56.161312 -81.762102
v -7.637978 59.957872 -78.245676
v -7.467010 59.964930 -79.565413
v -7.109432 59.029249 -80.004061
v -7.673424 59.190027 -77.347391
v -6.086227 56.691059 -79.118677
v -5.394585 54.321886 -78.299784
v -7.138401 55.895098 -75.324884
v -1.043392 48.014914 -89.124861
v -7.494713 41.477677 -74.567398
v -0.837212 45.825825 -88.602327
v -0.842674 43.737011 -87.153635
v -5.471756 57.044617 -66.837549
v -12.321987 45.778786 -68.465893
v -9.066597 39.354258 -69.198700
v -11.550289 51.527300 -68.953953
v -8.694008 55.098522 -67.520996
v -4.818295 56.344072 -63.335327
v -5.461315 58.089293 -57.885283
v -9.391960 37.258432 -65.712070
v -13.064194 45.162678 -65.827219
v -13.058224 50.881557 -65.813105
v -9.874619 55.136147 -64.546524
v -12.697189 55.067162 -59.070747
v -15.219933 48.396484 -61.110954
v -15.167583 43.487101 -61.484274
v -12.119602 36.325077 -61.701616
v -17.501400 43.231604 -60.114744
v -13.160786 35.079266 -58.946960
v -16.517273 48.697474 -59.467922
v -4.315403 40.607858 8.093115
v -0.984955 40.694424 7.577196
v -3.232887 31.513790 -12.570753
v -0.632889 32.120142 -12.032669
v -1.276863 31.094713 -14.066654
v -5.306133 31.754764 -14.485342
v -10.039234 31.864560 -18.135639
v -12.907898 34.199589 -43.747557
v -13.000179 33.980026 -50.633402
v -13.204651 51.946482 -51.068745
v -6.455574 57.277575 -48.544046
v -5.931049 55.785744 -36.288943
v -13.003433 50.998482 -38.714955
v -1.260284 42.891989 15.681578
v -1.306965 42.679565 15.598623
v -5.871288 42.332733 13.123518
v -6.843979 42.919636 -8.839281
v -4.234001 43.001667 -8.249189
v -5.526817 47.563774 -18.368971
v -4.924911 46.411156 -15.525038
v -1.211308 46.564972 -15.344093
v -12.133755 44.081280 -18.069090
v -1.026703 41.893963 8.294504
v -4.308136 41.764776 7.839582
v -11.212212 40.748003 6.158278
v -13.525459 41.838161 6.602568
v -12.230713 42.903219 17.191160
v -13.390045 44.202797 16.349386
v -14.693817 38.310341 -17.027281
v -17.617744 49.093340 -44.287781
v -14.480362 52.444595 -51.292685
v -11.533215 40.448030 5.986712
v -13.310093 39.908880 6.008562
v -9.529068 33.981838 -11.628464
v -8.026955 45.429510 -15.631252
v -27.564602 65.248835 -39.455799
v -25.891853 65.507631 -41.559644
v -26.811741 65.129179 -43.960995
v -41.220367 104.653032 -63.875320
v -42.429817 102.740580 -65.188116
v -31.185982 77.601072 -53.627498
v -30.465305 78.630037 -51.749978
v -32.073441 78.685408 -50.391782
v -43.669365 107.629732 -65.406822
v -67.576927 124.687693 -40.101632
v -67.998940 125.015131 -40.464669
v -44.169746 106.408899 -65.172205
v -42.904701 106.158838 -63.890160
v -51.557915 105.998667 -31.968679
v -52.759651 106.545351 -32.169783
v -74.480682 87.216650 -1.008402
v -57.838951 101.904985 -18.696247
v -57.666283 100.616938 -19.091625
v -51.556557 104.405169 -32.397681
v -58.670418 101.717516 -19.386747
v -100.854233 123.299990 -16.416246
v -78.084557 127.592539 -31.152552
v -77.824036 126.995348 -30.761494
v -114.052017 139.118723 -32.037505
v -88.415985 137.365129 -45.769375
v -88.153282 137.473986 -44.848800
v -78.617271 127.655199 -31.807734
v -42.423309 104.499559 -63.070122
v -41.728485 105.746569 -64.577579
v -42.346504 106.382059 -65.159651
v -13.556313 41.756585 16.676363
v -12.324963 42.779770 17.153055
v -15.573402 43.463520 22.538134
v -14.873787 44.390570 22.769381
v -14.419762 43.165676 15.412851
v -17.230457 44.612280 22.433969
v -18.119053 44.421543 20.145899
v -17.335915 43.434933 22.551691
v -72.428177 131.539911 -52.612408
v -72.238907 131.498247 -51.546482
v -10.611309 42.483625 -10.734186
v -4.328350 33.621058 -7.467173
v -0.952888 34.141602 -7.634726
v -7.070557 33.798380 -8.202196
v -1.010796 43.682701 -8.015860
v -16.104511 41.324219 6.591364
v -15.194439 40.778809 6.604292
v -14.428490 42.986109 15.442705
v -17.605293 43.471264 20.530622
v -45.589615 108.205622 -68.063986
v -44.305634 108.290346 -66.623354
v -42.738228 106.887705 -65.749556
v -43.290924 104.919664 -66.529161
v -42.793510 106.972834 -66.343819
v -72.224739 131.197039 -50.481773
v -88.104408 136.810228 -44.172312
v -43.194107 104.546785 -66.232599
v -67.365280 124.054186 -39.885916
v -31.184761 64.236959 -22.742462
v -46.031654 93.563555 -20.567366
v -23.582729 43.278500 8.779970
v -38.688400 64.303457 2.577429
v -43.974655 73.682409 -0.070654
v -55.062927 77.961363 -1.689932
v -64.188011 115.064363 -27.121506
v -79.659660 110.430735 -10.936670
v -44.594139 107.537081 -66.109545
v -103.597824 132.673685 -25.886496
v -82.016579 132.811258 -38.252869
v -45.064255 107.743395 -68.369305
v -43.278389 105.416262 -67.201075
v -42.728775 106.865206 -66.872988
v -43.419258 107.040888 -71.491693
v -41.908653 106.724550 -70.647099
v -42.284203 105.721659 -70.859781
v -42.439102 107.122057 -74.750835
v -41.096115 107.087893 -74.400368
v -41.463097 106.119081 -74.610147
v -42.405876 108.050303 -77.753042
v -25.221886 66.276033 -55.660340
v -30.547428 77.665140 -58.546442
v -29.489712 63.567881 -42.457301
v -29.259350 64.335135 -39.878629
v -44.525246 102.422518 -64.705460
v -33.999527 76.723749 -52.632556
v -33.778236 77.766253 -50.817179
v -45.541451 106.662523 -66.382635
v -68.046654 124.752977 -40.589688
v -67.854301 124.258615 -40.216660
v -45.872459 105.683199 -66.027840
v -44.738922 105.888872 -65.339825
v -53.646690 105.669230 -32.610742
v -53.595863 103.985781 -32.981143
v -44.985825 104.329348 -64.440180
v -57.881142 100.346521 -19.358936
v -58.786232 100.716867 -19.863491
v -52.334473 103.639513 -32.775826
v -58.982758 101.325846 -19.771368
v -77.903549 126.830637 -30.826667
v -78.509277 126.747942 -31.569146
v -88.311928 136.837908 -45.010720
v -78.502159 127.615519 -31.770617
v -43.956932 103.307695 -63.474960
v -44.864853 103.392916 -65.394112
v -45.054741 104.258478 -65.878653
v -72.612122 130.997324 -51.718390
v -46.094666 106.595385 -67.170118
v -45.240585 104.892702 -66.431709
v -45.112442 105.111963 -66.963554
v -72.607727 130.737375 -50.652434
v -87.819183 136.983339 -43.978277
v -67.398643 124.023951 -39.828911
v -46.252167 93.108118 -20.808352
v -32.011139 63.731241 -22.950781
v -57.992325 113.711000 -37.363010
v -64.549828 114.661936 -27.366740
v -70.669106 127.989710 -46.181902
v -81.925774 132.759447 -38.261306
v -44.794983 105.097422 -67.442537
v -43.278107 105.329988 -71.090967
v -42.422562 105.735880 -74.832888
v -42.889557 103.716249 -65.715837
v -32.288704 77.057539 -53.765890
v -27.992867 64.480082 -44.080556
v -18.375618 53.573353 -57.683233
v -1.160667 46.986868 -16.090471
v -12.657372 35.411454 -18.286661
v -17.561760 39.391085 -43.305511
v -21.030361 45.445162 -55.050690
v -0.242710 43.768408 -87.374159
v 0.019695 28.093983 -42.672534
v -0.000977 28.908478 -51.095236
v -0.000717 57.743256 -47.538273
v -0.027546 31.372869 -11.783518
v -0.042046 30.931368 -13.961380
v 0.002213 46.616291 -15.288368
v -0.013119 56.647537 -79.540701
v -0.013680 47.566050 -89.175695
v -0.013680 45.805174 -88.689650
v -0.112801 32.709800 -66.203049
v 0.000114 39.818110 7.605001
v 0.000004 43.264652 16.441736
v 0.000008 42.580074 16.458490
v 0.007992 44.326607 -8.029406
v -0.013660 43.204002 -83.229147
v -0.028873 40.724067 -77.722464
v -0.012188 38.958299 -73.801449
v 1.313818 44.820822 -83.466318
v 5.949411 42.408484 -77.648314
v 6.404457 47.089048 -80.490412
v 4.373779 46.367155 -83.058859
v 2.282524 49.140732 -85.661871
v 4.093824 51.775824 -83.253927
v -0.013657 51.881220 -84.036291
v -0.013676 49.752508 -85.929827
v 3.498295 56.526169 -79.807596
v -0.013569 53.913929 -82.331656
v 3.789358 54.045282 -81.649183
v 9.416618 61.441904 -81.559435
v 9.815914 62.373213 -81.020281
v 3.722960 57.596792 -77.873613
v 5.457485 58.190170 -73.962290
v -0.011143 59.165121 -73.239363
v -0.012524 58.180458 -77.535112
v 10.779408 51.037039 -72.906229
v 8.967522 53.112223 -74.701752
v 8.454971 50.489603 -77.932337
v 8.857725 46.206564 -77.012918
v 6.360334 52.803299 -74.535156
v 4.917173 51.722158 -76.866510
v 9.060883 59.174356 -76.201315
v 8.898573 55.683943 -74.110659
v 6.930103 52.675333 -80.974512
v 7.122215 56.161312 -81.762102
v 7.442291 59.964930 -79.565413
v 7.613836 59.957872 -78.245676
v 7.084276 59.029249 -80.004061
v 7.649527 59.190027 -77.347391
v 6.060654 56.691059 -79.118677
v 5.368517 54.321886 -78.299784
v 7.114552 55.895098 -75.324884
v 1.016035 48.014914 -89.124861
v 7.470488 41.477677 -74.567398
v 0.809853 45.825825 -88.602327
v 0.357254 43.737013 -87.153639
v 5.453178 57.044617 -66.837549
v -0.009308 57.610064 -66.369568
v 12.302273 45.778786 -68.465893
v 9.047104 39.354258 -69.198700
v 11.530491 51.527300 -68.953953
v 8.675135 55.098522 -67.520996
v 4.801121 56.344070 -63.335327
v 5.448271 58.089073 -57.884405
v 0.031521 58.205236 -56.897511
v -0.008541 56.585630 -62.641743
v 9.375044 37.258432 -65.712070
v -0.009464 34.683647 -69.299826
v 13.046400 45.162678 -65.827219
v 13.040216 50.881557 -65.813105
v 9.856920 55.136147 -64.546524
v 12.682465 55.053085 -59.070650
v 15.194788 48.299980 -61.104013
v 15.144253 43.427505 -61.465761
v 12.102455 36.310504 -61.691620
v 17.476003 43.116629 -60.085815
v 13.147644 35.057130 -58.926075
v 16.493923 48.558668 -59.475180
v -0.109295 31.682452 -61.346945
v 4.338467 40.669337 8.093760
v 4.298494 33.707353 -7.365290
v 0.949036 34.146200 -7.629789
v 0.985069 40.694736 7.577219
v 3.141809 31.526381 -12.458364
v 5.191185 31.731337 -14.338472
v 1.190771 31.094058 -14.027905
v 0.588596 32.123360 -12.018311
v 9.827389 31.671767 -17.937279
v 12.906689 34.235141 -43.689666
v -0.096596 27.876982 -18.718737
v 12.993666 33.980580 -50.583129
v 13.207291 51.981400 -51.064531
v 6.453632 57.279652 -48.541968
v 13.014330 51.109900 -38.689341
v 5.931885 55.797325 -36.283082
v -0.003815 56.227354 -35.294157
v 12.085577 43.671862 -18.273174
v 5.520388 47.465679 -18.429323
v 6.016718 42.683695 13.090734
v 1.307108 42.679924 15.598612
v 1.260384 42.892237 15.681570
v 4.284063 43.062851 -8.287317
v 6.968025 43.023878 -8.983965
v 11.782948 41.882652 5.916216
v 4.330084 41.818840 7.837240
v 4.934145 46.348263 -15.581099
v 1.216122 46.555145 -15.353331
v 1.162611 46.977310 -16.098106
v 10.715975 42.411318 -10.973141
v 14.153805 42.960012 6.233404
v 14.450605 46.056015 15.747927
v 13.253990 44.878115 16.708487
v 14.474857 37.865453 -16.982878
v 17.652832 49.423359 -44.236513
v 18.355448 53.326942 -57.803511
v 14.494415 52.504387 -51.364945
v 21.012572 45.340954 -54.993871
v 12.099033 41.595564 5.761885
v 13.850761 40.979036 5.776255
v 9.409245 33.953343 -11.440405
v 7.005266 33.931611 -8.003023
v 12.283791 34.763959 -18.102991
v 17.567870 39.600668 -43.104926
v 8.043692 45.244019 -15.784286
v 26.016216 65.964262 -42.301273
v 27.701938 65.803328 -40.198467
v 41.335477 103.896387 -66.715017
v 30.558972 78.527143 -53.186882
v 31.261237 77.400549 -55.014204
v 42.507725 101.867075 -67.935822
v 32.177822 78.645578 -51.845327
v 44.886487 106.530085 -69.083845
v 69.662945 124.832064 -45.193978
v 69.292377 124.568193 -44.807112
v 43.946362 106.702616 -68.393652
v 44.391280 105.468454 -68.089899
v 53.800785 107.060534 -35.431676
v 52.604351 106.587580 -35.105523
v 43.101711 105.347979 -66.816849
v 60.441586 101.787119 -22.818485
v 60.627144 103.107409 -22.537331
v 81.800171 91.133295 -7.792948
v 52.490244 104.972155 -35.426023
v 61.332685 102.891504 -23.338905
v 106.881805 124.312273 -28.887934
v 80.906487 127.847353 -37.819593
v 81.339260 127.827501 -38.563823
v 118.230484 138.075655 -45.029072
v 90.146404 137.156008 -52.349887
v 90.310608 136.928041 -53.244896
v 42.529907 103.761354 -65.909483
v 42.967363 102.812349 -68.516535
v 41.883868 104.943659 -67.477295
v 42.529011 105.521791 -68.095417
v 13.340752 44.747669 16.676439
v 14.504263 43.632086 16.238222
v 16.137230 46.527634 22.112932
v 16.776571 45.549534 21.918627
v 15.398186 44.903589 14.858362
v 19.300117 46.220127 19.407812
v 18.491826 46.592199 21.703386
v 18.534326 45.419472 21.887575
v 73.883526 130.314013 -57.230602
v 74.072475 130.236368 -58.303220
v 26.918227 65.462206 -44.686411
v 1.022547 43.687988 -8.018751
v 16.688715 42.465637 6.257757
v 15.399498 44.726551 14.901270
v 15.783659 41.841437 6.267073
v 18.745413 45.324448 19.861475
v -0.004108 33.157038 -7.592501
v 1.026733 41.894025 8.294508
v 44.635795 107.271898 -69.640472
v 45.921185 107.034410 -71.074640
v 45.368556 106.589777 -71.352423
v 42.946658 105.903070 -69.836285
v 42.940132 105.979013 -68.710413
v 43.002307 106.033587 -69.305357
v 43.381641 103.970438 -69.396030
v 43.447139 104.432116 -70.097010
v 73.802895 130.111841 -56.125077
v 90.071297 136.504534 -51.717878
v 43.274430 103.613878 -69.078339
v 69.093193 123.978472 -44.567344
v 80.663982 127.297907 -37.303257
v 31.429909 65.609938 -23.482048
v 48.133976 94.667261 -22.204475
v 62.959232 80.400625 -4.078642
v 39.143184 66.979937 1.743216
v 24.218334 44.581896 8.271021
v 48.026572 75.763620 -0.684622
v 65.706676 115.777002 -31.873091
v 83.890938 113.233957 -18.929792
v 108.072136 133.018122 -37.806287
v 84.349789 133.062960 -44.983936
v 42.214695 105.534075 -73.632570
v 43.746012 105.765947 -74.470217
v 42.575296 104.511339 -73.775122
v 41.471548 105.667551 -77.415792
v 42.820448 105.655237 -77.744440
v 41.823568 104.680864 -77.556955
v 42.853195 106.389505 -80.799891
v 30.572196 77.227316 -59.924627
v 25.254710 66.031610 -56.415936
v 29.600142 63.966589 -43.124556
v 28.095892 64.802824 -44.781193
v 44.566858 101.546717 -67.445932
v 32.361000 76.846083 -55.132623
v 34.079549 76.563799 -53.996370
v 29.390122 64.862341 -40.586264
v 33.876016 77.698969 -52.235482
v 45.792653 105.591188 -69.301130
v 46.056336 104.620081 -68.899893
v 69.516617 124.120249 -44.829595
v 69.685749 124.615099 -45.318396
v 44.937015 104.910707 -68.225603
v 45.062457 103.367273 -67.277153
v 54.437391 104.414324 -36.126713
v 54.598639 106.114656 -35.876530
v 61.402536 101.860399 -23.764168
v 60.617189 101.503366 -23.099354
v 53.191301 104.144564 -35.805208
v 61.588390 102.480417 -23.743189
v 81.151382 127.792643 -38.439533
v 81.213936 126.929201 -38.182985
v 90.260414 136.449167 -52.417758
v 44.000288 102.487139 -66.257751
v 44.912327 102.445520 -68.181833
v 45.140666 103.271502 -68.707649
v 74.301010 129.753923 -57.384062
v 46.350066 105.460306 -70.071028
v 44.954870 104.046808 -70.301023
v 45.359468 103.873941 -69.285597
v 45.248713 104.077768 -69.823103
v 74.246971 129.613604 -56.281579
v 89.795811 136.606508 -51.423456
v 69.116444 123.936754 -44.439753
v 80.719128 127.103952 -37.346550
v 48.370330 94.185061 -22.422670
v 32.252285 65.089853 -23.670137
v 58.996986 113.793108 -41.236750
v 66.024792 115.346956 -32.118993
v 72.268402 127.399744 -51.393425
v 84.177647 132.989641 -44.984735
v 43.565320 104.087557 -73.963755
v 42.779119 104.267176 -77.738138
v -0.000389 47.474058 -17.050261
v -0.002159 48.072577 -18.391838
v -0.242710 43.772234 -86.442976
v 0.009151 30.100250 -57.026447
v 0.000011 42.897894 8.237444
v -0.055035 30.199242 -14.986807
v -58.144455 113.701906 -36.259434
v 59.156260 113.800241 -40.224709
v 9.994890 62.452299 -79.934473
v 9.994892 62.452303 -79.934477
v 9.815914 62.373213 -81.020281
v 9.815914 62.373213 -81.020281
v 9.815914 62.373213 -81.020281
v -9.752186 62.377413 -80.950563
v -9.752186 62.377413 -80.950563
v -9.752186 62.377413 -80.950563
v -9.920799 62.342180 -79.679834
v -9.920799 62.342180 -79.679834
v -9.920799 62.342180 -79.679834
vt 0.090757 0.825898
vt 0.087647 0.808682
vt 0.097927 0.794136
vt 0.118427 0.828529
vt 0.066755 0.797482
vt 0.059839 0.817122
vt 0.044523 0.802343
vt 0.055701 0.791097
vt 0.040014 0.841103
vt 0.023238 0.835999
vt 0.034135 0.815096
vt 0.049316 0.826801
vt 0.036827 0.853992
vt 0.068109 0.851080
vt 0.067581 0.856296
vt 0.067686 0.863585
vt 0.043565 0.876520
vt 0.015504 0.877777
vt 0.018153 0.852187
vt 0.073475 0.870325
vt 0.080249 0.848913
vt 0.101870 0.845859
vt 0.088037 0.877446
vt 0.236411 0.906089
vt 0.246218 0.930134
vt 0.235270 0.931598
vt 0.229208 0.922538
vt 0.065853 0.870916
vt 0.063635 0.878839
vt 0.065099 0.834961
vt 0.069374 0.845578
vt 0.192996 0.938295
vt 0.197950 0.943863
vt 0.180974 0.953076
vt 0.174742 0.946182
vt 0.194944 0.933224
vt 0.204298 0.945836
vt 0.210290 0.954357
vt 0.176004 0.939738
vt 0.197132 0.915344
vt 0.207543 0.927767
vt 0.213975 0.904590
vt 0.218862 0.923373
vt 0.225587 0.942659
vt 0.068335 0.778364
vt 0.067166 0.773875
vt 0.129034 0.843835
vt 0.078281 0.775913
vt 0.077870 0.771609
vt 0.083818 0.772543
vt 0.083345 0.775701
vt 0.236268 0.946688
vt 0.046499 0.912014
vt 0.017986 0.914092
vt 0.149690 0.867612
vt 0.119993 0.890177
vt 0.090685 0.898024
vt 0.067083 0.909169
vt 0.045371 0.957935
vt 0.017515 0.961880
vt 0.019013 0.932886
vt 0.044270 0.929729
vt 0.166593 0.880592
vt 0.185132 0.829335
vt 0.207096 0.841920
vt 0.127250 0.902464
vt 0.099295 0.913293
vt 0.072325 0.924244
vt 0.086936 0.951679
vt 0.125484 0.930802
vt 0.147193 0.921161
vt 0.178833 0.903495
vt 0.093015 0.425160
vt 0.127769 0.430819
vt 0.128558 0.444201
vt 0.093260 0.442597
vt 0.151144 0.440298
vt 0.150556 0.451681
vt 0.227808 0.858260
vt 0.039456 0.165522
vt 0.022088 0.164945
vt 0.020522 0.084333
vt 0.037656 0.081806
vt 0.032567 0.192810
vt 0.042610 0.201166
vt 0.022142 0.200124
vt 0.019828 0.188669
vt 0.080286 0.344629
vt 0.015328 0.344334
vt 0.012661 0.229403
vt 0.065446 0.220186
vt 0.085405 0.379908
vt 0.019362 0.389148
vt 0.724526 0.865301
vt 0.761823 0.819584
vt 0.770383 0.857036
vt 0.730696 0.872891
vt 0.810568 0.810950
vt 0.844271 0.809958
vt 0.839318 0.852471
vt 0.811132 0.853940
vt 0.777186 0.756441
vt 0.821023 0.750525
vt 0.851668 0.748080
vt 0.794426 0.645868
vt 0.828758 0.652908
vt 0.820617 0.482515
vt 0.844498 0.469038
vt 0.845524 0.469620
vt 0.830022 0.593898
vt 0.815545 0.596375
vt 0.788014 0.518987
vt 0.828730 0.509711
vt 0.831134 0.637156
vt 0.849902 0.636500
vt 0.850513 0.641494
vt 0.796337 0.606089
vt 0.776139 0.517244
vt 0.773389 0.465836
vt 0.781706 0.462118
vt 0.734324 0.775716
vt 0.766997 0.639422
vt 0.711018 0.857485
vt 0.735678 0.820622
vt 0.131411 0.401194
vt 0.079707 0.092283
vt 0.089182 0.093459
vt 0.066857 0.185025
vt 0.053567 0.168331
vt 0.090085 0.218958
vt 0.104396 0.339246
vt 0.815137 0.635091
vt 0.645685 0.770718
vt 0.642605 0.755796
vt 0.565982 0.809561
vt 0.567982 0.820755
vt 0.420537 0.860051
vt 0.416035 0.849213
vt 0.563090 0.799516
vt 0.389480 0.856440
vt 0.235354 0.737615
vt 0.238256 0.735417
vt 0.393853 0.853343
vt 0.397606 0.848736
vt 0.374082 0.679087
vt 0.380662 0.679669
vt 0.405643 0.845612
vt 0.389999 0.604071
vt 0.383669 0.604228
vt 0.397913 0.461425
vt 0.388772 0.680238
vt 0.378820 0.604023
vt 0.110132 0.569537
vt 0.186892 0.683472
vt 0.184036 0.686035
vt 0.001857 0.660042
vt 0.114974 0.753993
vt 0.113105 0.758558
vt 0.414086 0.841837
vt 0.414291 0.861785
vt 0.409582 0.851454
vt 0.404234 0.854039
vt 0.084524 0.034391
vt 0.091491 0.037993
vt 0.769856 0.433071
vt 0.770944 0.429713
vt 0.782026 0.461380
vt 0.766844 0.470799
vt 0.755745 0.441844
vt 0.760271 0.432291
vt 0.099333 0.006115
vt 0.107943 0.005278
vt 0.758020 0.428218
vt 0.197763 0.795239
vt 0.196860 0.800469
vt 0.643612 0.784055
vt 0.847373 0.593976
vt 0.765546 0.518325
vt 0.098357 0.090018
vt 0.098881 0.043230
vt 0.110531 0.015100
vt 0.751905 0.441034
vt 0.045675 0.054378
vt 0.015276 0.166579
vt 0.014088 0.085754
vt 0.016010 0.199956
vt 0.015234 0.189412
vt 0.020969 0.042450
vt 0.849637 0.463036
vt 0.852035 0.465545
vt 0.845719 0.507349
vt 0.853422 0.594535
vt 0.855968 0.636223
vt 0.387453 0.860053
vt 0.381737 0.867761
vt 0.397797 0.863148
vt 0.384756 0.869147
vt 0.399721 0.856549
vt 0.405499 0.865655
vt 0.397981 0.859827
vt 0.407501 0.863207
vt 0.198584 0.789813
vt 0.116923 0.749180
vt 0.409344 0.862810
vt 0.240807 0.733440
vt 0.189496 0.680992
vt 0.643859 0.666893
vt 0.462151 0.627881
vt 0.496740 0.504216
vt 0.654615 0.532924
vt 0.733410 0.507335
vt 0.580062 0.528940
vt 0.274747 0.530354
vt 0.297884 0.647391
vt 0.068024 0.629741
vt 0.155130 0.721883
vt 0.398094 0.883664
vt 0.389451 0.886026
vt 0.403610 0.884465
vt 0.396778 0.902983
vt 0.389906 0.903509
vt 0.401658 0.904546
vt 0.388569 0.919709
vt 0.565170 0.846098
vt 0.635437 0.844236
vt 0.154989 0.427747
vt 0.219029 0.341754
vt 0.221374 0.353742
vt 0.444039 0.430874
vt 0.296986 0.390826
vt 0.298663 0.380651
vt 0.448563 0.419538
vt 0.221747 0.327576
vt 0.301464 0.370701
vt 0.470797 0.423460
vt 0.625321 0.304666
vt 0.628407 0.306948
vt 0.475191 0.426405
vt 0.458916 0.415870
vt 0.480878 0.249906
vt 0.489188 0.249280
vt 0.466993 0.418965
vt 0.479362 0.174425
vt 0.473669 0.174374
vt 0.463642 0.032069
vt 0.474625 0.250631
vt 0.482707 0.174440
vt 0.679394 0.255288
vt 0.676204 0.252467
vt 0.751551 0.137962
vt 0.750521 0.326745
vt 0.748617 0.322209
vt 0.860730 0.227387
vt 0.450414 0.412148
vt 0.455041 0.421723
vt 0.450446 0.432074
vt 0.460424 0.424267
vt 0.667213 0.369233
vt 0.666268 0.364026
vt 0.299690 0.416847
vt 0.229782 0.414687
vt 0.483084 0.437541
vt 0.477276 0.429914
vt 0.467001 0.433229
vt 0.480136 0.438949
vt 0.464975 0.426723
vt 0.459347 0.435879
vt 0.457285 0.433431
vt 0.466761 0.429949
vt 0.665407 0.358688
vt 0.746872 0.317788
vt 0.455416 0.433040
vt 0.622432 0.302293
vt 0.673072 0.249590
vt 0.401272 0.198739
vt 0.365770 0.075757
vt 0.098390 0.042798
vt 0.131066 0.079944
vt 0.219919 0.239036
vt 0.209255 0.105356
vt 0.283138 0.101086
vt 0.540660 0.275014
vt 0.564391 0.216869
vt 0.586794 0.100016
vt 0.648934 0.335581
vt 0.794384 0.197787
vt 0.708600 0.290888
vt 0.475842 0.455894
vt 0.467166 0.453706
vt 0.461678 0.454612
vt 0.475737 0.473400
vt 0.468884 0.472958
vt 0.464029 0.474571
vt 0.477127 0.489632
vt 0.765593 0.470425
vt 0.323559 0.699149
vt 0.856627 0.646972
vt 0.856654 0.655375
vt 0.087713 0.775846
vt 0.106867 0.788162
vt 0.134830 0.801352
vt 0.156014 0.813908
vt 0.023305 0.420462
vt 0.026772 0.445166
vt 0.014229 0.038416
vt 0.852872 0.507552
vt 0.015269 0.206264
vt 1.090757 0.825898
vt 1.118427 0.828529
vt 1.097927 0.794136
vt 1.087647 0.808682
vt 1.066755 0.797482
vt 1.055701 0.791097
vt 1.044523 0.802343
vt 1.059839 0.817122
vt 1.040014 0.841103
vt 1.049316 0.826801
vt 1.034135 0.815096
vt 1.023238 0.835999
vt 1.036827 0.853992
vt 1.067581 0.856296
vt 1.068109 0.851080
vt 1.043565 0.876520
vt 1.067686 0.863585
vt 1.018153 0.852187
vt 1.015504 0.877777
vt 1.073475 0.870325
vt 1.088037 0.877446
vt 1.101870 0.845859
vt 1.080249 0.848913
vt 1.236411 0.906089
vt 1.229208 0.922538
vt 1.235270 0.931598
vt 1.246218 0.930134
vt 1.063635 0.878839
vt 1.065853 0.870916
vt 1.069374 0.845578
vt 1.065099 0.834961
vt 1.192996 0.938295
vt 1.174742 0.946182
vt 1.180974 0.953076
vt 1.197950 0.943863
vt 1.204298 0.945836
vt 1.194944 0.933224
vt 1.210290 0.954357
vt 1.207543 0.927767
vt 1.197132 0.915344
vt 1.176004 0.939738
vt 1.213974 0.904590
vt 1.218862 0.923373
vt 1.225587 0.942659
vt 1.068335 0.778364
vt 1.067166 0.773875
vt 1.129034 0.843835
vt 1.078281 0.775913
vt 1.077870 0.771609
vt 1.083344 0.775701
vt 1.083818 0.772543
vt 1.236269 0.946688
vt 1.046499 0.912014
vt 1.017986 0.914092
vt 1.119993 0.890177
vt 1.149690 0.867612
vt 1.090685 0.898024
vt 1.067083 0.909169
vt 1.045371 0.957935
vt 1.044270 0.929729
vt 1.019013 0.932886
vt 1.017515 0.961880
vt 1.166593 0.880592
vt 1.207096 0.841920
vt 1.185132 0.829335
vt 1.127250 0.902464
vt 1.099295 0.913293
vt 1.072325 0.924244
vt 1.086936 0.951679
vt 1.125484 0.930802
vt 1.147193 0.921161
vt 1.178833 0.903495
vt 1.093015 0.425160
vt 1.093260 0.442597
vt 1.128558 0.444201
vt 1.127769 0.430819
vt 1.151144 0.440298
vt 1.150556 0.451681
vt 1.227808 0.858260
vt 1.039456 0.165522
vt 1.037656 0.081806
vt 1.020522 0.084333
vt 1.022088 0.164945
vt 1.032568 0.192810
vt 1.019828 0.188669
vt 1.022142 0.200124
vt 1.042610 0.201166
vt 1.080286 0.344629
vt 1.065446 0.220186
vt 1.012661 0.229403
vt 1.015328 0.344334
vt 1.019362 0.389148
vt 1.085405 0.379908
vt 1.724526 0.865301
vt 1.730696 0.872891
vt 1.770383 0.857036
vt 1.761823 0.819584
vt 1.810568 0.810950
vt 1.811132 0.853940
vt 1.839318 0.852471
vt 1.844271 0.809958
vt 1.821023 0.750525
vt 1.777186 0.756441
vt 1.851668 0.748080
vt 1.828758 0.652908
vt 1.794426 0.645868
vt 1.820617 0.482515
vt 1.845524 0.469620
vt 1.844498 0.469038
vt 1.830022 0.593898
vt 1.828730 0.509711
vt 1.788014 0.518987
vt 1.815545 0.596375
vt 1.831134 0.637156
vt 1.850513 0.641494
vt 1.849902 0.636500
vt 1.776139 0.517244
vt 1.796337 0.606089
vt 1.781706 0.462118
vt 1.773389 0.465836
vt 1.766997 0.639422
vt 1.734324 0.775716
vt 1.735678 0.820622
vt 1.711018 0.857485
vt 1.131411 0.401194
vt 1.079707 0.092283
vt 1.053567 0.168331
vt 1.066857 0.185025
vt 1.089182 0.093459
vt 1.104396 0.339246
vt 1.090085 0.218958
vt 1.815137 0.635091
vt 1.642605 0.755796
vt 1.645685 0.770718
vt 1.565982 0.809561
vt 1.416035 0.849213
vt 1.420537 0.860051
vt 1.567982 0.820755
vt 1.563090 0.799516
vt 1.389480 0.856440
vt 1.393853 0.853343
vt 1.238256 0.735417
vt 1.235354 0.737615
vt 1.405643 0.845612
vt 1.380662 0.679669
vt 1.374082 0.679087
vt 1.398004 0.849222
vt 1.389999 0.604071
vt 1.397913 0.461425
vt 1.383669 0.604228
vt 1.388772 0.680238
vt 1.378820 0.604023
vt 1.110132 0.569537
vt 1.184036 0.686035
vt 1.186892 0.683472
vt 1.001857 0.660042
vt 1.113105 0.758558
vt 1.114974 0.753993
vt 1.414086 0.841837
vt 1.414291 0.861785
vt 1.409582 0.851454
vt 1.404234 0.854039
vt 1.091491 0.037993
vt 1.084524 0.034391
vt 1.782026 0.461380
vt 1.770944 0.429713
vt 1.769856 0.433071
vt 1.766844 0.470799
vt 1.760271 0.432291
vt 1.755745 0.441844
vt 1.107943 0.005278
vt 1.099333 0.006115
vt 1.758020 0.428218
vt 1.196860 0.800469
vt 1.197763 0.795239
vt 1.643612 0.784055
vt 1.847373 0.593976
vt 1.765546 0.518325
vt 1.098357 0.090018
vt 1.098881 0.043230
vt 1.110531 0.015100
vt 1.751905 0.441034
vt 1.045675 0.054378
vt 1.014088 0.085754
vt 1.015276 0.166579
vt 1.015234 0.189412
vt 1.016010 0.199956
vt 1.020969 0.042450
vt 1.852035 0.465545
vt 1.849637 0.463036
vt 1.845719 0.507349
vt 1.855968 0.636223
vt 1.853422 0.594535
vt 1.381737 0.867761
vt 1.387453 0.860053
vt 1.397797 0.863148
vt 1.384756 0.869147
vt 1.399721 0.856549
vt 1.405499 0.865655
vt 1.407501 0.863207
vt 1.397981 0.859827
vt 1.198584 0.789813
vt 1.116923 0.749180
vt 1.409344 0.862810
vt 1.240807 0.733440
vt 1.189496 0.680992
vt 1.643859 0.666893
vt 1.462151 0.627881
vt 1.496740 0.504216
vt 1.654615 0.532924
vt 1.733410 0.507335
vt 1.580062 0.528940
vt 1.274747 0.530354
vt 1.297884 0.647391
vt 1.068024 0.629741
vt 1.155130 0.721883
vt 1.398094 0.883664
vt 1.389451 0.886026
vt 1.403610 0.884465
vt 1.396778 0.902983
vt 1.389906 0.903509
vt 1.401658 0.904546
vt 1.388569 0.919709
vt 1.565170 0.846098
vt 1.635437 0.844236
vt 1.154989 0.427747
vt 1.219029 0.341754
vt 1.221374 0.353742
vt 1.444039 0.430874
vt 1.448563 0.419538
vt 1.298663 0.380651
vt 1.296986 0.390826
vt 1.301464 0.370701
vt 1.221747 0.327576
vt 1.470797 0.423460
vt 1.475191 0.426405
vt 1.628407 0.306948
vt 1.625321 0.304666
vt 1.458916 0.415870
vt 1.466993 0.418965
vt 1.489188 0.249280
vt 1.480878 0.249906
vt 1.479362 0.174425
vt 1.463642 0.032069
vt 1.473669 0.174374
vt 1.474625 0.250631
vt 1.482707 0.174440
vt 1.679394 0.255288
vt 1.751551 0.137962
vt 1.676204 0.252467
vt 1.750521 0.326745
vt 1.860730 0.227387
vt 1.748617 0.322209
vt 1.450414 0.412148
vt 1.450446 0.432074
vt 1.455041 0.421723
vt 1.460424 0.424267
vt 1.666268 0.364026
vt 1.667213 0.369233
vt 1.299690 0.416847
vt 1.229782 0.414687
vt 1.477276 0.429914
vt 1.483084 0.437541
vt 1.467000 0.433229
vt 1.480136 0.438949
vt 1.464975 0.426723
vt 1.459347 0.435879
vt 1.466761 0.429949
vt 1.457285 0.433431
vt 1.665407 0.358688
vt 1.746872 0.317788
vt 1.455416 0.433040
vt 1.622432 0.302293
vt 1.673072 0.249590
vt 1.401272 0.198739
vt 1.365770 0.075757
vt 1.131066 0.079944
vt 1.098390 0.042798
vt 1.219919 0.239036
vt 1.283138 0.101086
vt 1.209255 0.105356
vt 1.540660 0.275014
vt 1.564391 0.216869
vt 1.586794 0.100016
vt 1.648934 0.335581
vt 1.794384 0.197787
vt 1.708600 0.290888
vt 1.467166 0.453706
vt 1.475842 0.455894
vt 1.461678 0.454612
vt 1.468884 0.472958
vt 1.475737 0.473400
vt 1.464029 0.474571
vt 1.477127 0.489632
vt 1.765593 0.470425
vt 1.323664 0.699360
vt 1.856654 0.655375
vt 1.856627 0.646972
vt 1.087713 0.775846
vt 1.106867 0.788162
vt 1.134830 0.801352
vt 1.156014 0.813908
vt 1.023305 0.420462
vt 1.026772 0.445166
vt 1.014229 0.038416
vt 1.852872 0.507552
vt 1.015269 0.206264
vt 0.067581 0.856296
vt 0.067686 0.863585
vt 0.180974 0.953076
vt 0.174742 0.946182
vt 1.067581 0.856296
vt 1.174742 0.946182
vn -0.747193 -0.289206 -0.598384
vn -0.744006 -0.358332 -0.563963
vn -0.617708 -0.720547 -0.315038
vn -0.513180 -0.695974 -0.502260
vn -0.589501 0.404759 -0.699042
vn -0.333855 0.438371 -0.834489
vn 0.000000 0.621107 -0.783726
vn 0.000000 0.769737 -0.638362
vn 0.267294 0.647068 -0.714043
vn 0.000000 0.747057 -0.664760
vn 0.000000 0.633171 -0.774012
vn -0.043259 0.444938 -0.894516
vn 0.282127 0.908126 -0.309374
vn -0.646967 0.687573 -0.329663
vn 0.679956 0.643202 -0.352067
vn 0.587057 0.801644 0.112832
vn 0.587164 0.801174 0.115580
vn -0.171218 0.963162 0.207372
vn 0.000000 0.999255 -0.038584
vn 0.000000 0.912207 -0.409729
vn -0.591083 0.269931 -0.760104
vn -0.842791 0.329755 -0.425400
vn -0.851254 -0.233173 -0.470103
vn -0.931882 0.189317 -0.309442
vn -0.505488 0.271160 -0.819118
vn -0.806475 0.545112 -0.229021
vn -0.982694 0.103883 0.153362
vn -0.826014 0.387173 -0.409632
vn -0.245000 0.683739 0.687369
vn -0.902299 0.201590 -0.381075
vn -0.730873 0.192001 -0.654951
vn -0.860005 -0.507704 0.051269
vn -0.749779 -0.566490 -0.341936
vn -0.691441 -0.715072 -0.102865
vn -0.691342 -0.715516 -0.100416
vn -0.910284 -0.355371 0.212356
vn -0.695134 -0.529506 -0.486222
vn -0.408669 -0.712429 -0.570468
vn -0.955453 -0.276751 0.102556
vn -0.782937 -0.505079 0.363187
vn -0.995627 -0.020588 0.091120
vn -0.659425 -0.353981 -0.663217
vn -0.489576 0.434287 -0.756115
vn 0.000000 0.261368 -0.965239
vn -0.599225 -0.666680 -0.443246
vn -0.531881 -0.383746 -0.754878
vn 0.004326 -0.412483 -0.910955
vn -0.011732 -0.871089 -0.490985
vn -0.437459 -0.868138 -0.234448
vn -0.310903 0.943681 0.113157
vn -0.000000 0.983575 0.180498
vn -0.666321 -0.625997 -0.405148
vn -0.923863 -0.182969 -0.336153
vn -0.905954 0.338787 -0.253910
vn -0.642412 0.764061 -0.059314
vn -0.172805 0.971919 -0.159722
vn 0.013930 0.986711 -0.161889
vn 0.000000 0.995717 -0.092458
vn -0.172619 0.980073 -0.098279
vn -0.605370 -0.683650 -0.407614
vn 0.002973 -0.872779 -0.488107
vn -0.006022 -0.921009 -0.389495
vn -0.889627 -0.190004 -0.415285
vn -0.874935 0.312794 -0.369660
vn -0.556396 0.792799 -0.248783
vn -0.606753 0.766748 -0.209638
vn -0.792319 0.392217 -0.467330
vn -0.773145 -0.136861 -0.619286
vn -0.602753 -0.674075 -0.426979
vn -0.595239 -0.761968 -0.255137
vn -0.796721 -0.181555 -0.576432
vn -0.538590 0.560427 -0.629160
vn -0.003570 -0.960754 -0.277379
vn -0.004060 -0.933248 0.359211
vn -0.300252 -0.892819 0.335742
vn -0.259038 -0.907580 0.330452
vn 0.006438 -0.941215 0.337746
vn -0.035653 -0.930460 0.364654
vn -0.240799 -0.898176 0.367825
vn -0.226055 -0.863574 0.450711
vn -0.313341 -0.865994 0.389707
vn -0.734114 -0.674195 0.080857
vn 0.000714 -0.999294 0.037555
vn -0.002816 -0.934564 0.355784
vn -0.598378 -0.771370 0.216636
vn -0.676696 -0.736236 -0.006326
vn 0.000436 -0.997855 -0.065457
vn -0.472782 0.878378 0.070215
vn -0.262375 0.960054 0.097242
vn -0.000000 0.995888 0.090598
vn -0.611191 0.756410 0.233003
vn -0.259841 0.944401 0.201470
vn 0.006152 0.976744 0.214319
vn -0.634489 0.763348 0.121340
vn -0.222958 0.951628 0.211408
vn -0.423876 -0.243775 0.872297
vn -0.429392 -0.244899 0.869280
vn -0.429394 -0.244901 0.869278
vn -0.127055 0.965368 0.227865
vn -0.118049 0.966659 0.227234
vn 0.120285 0.992739 0.001284
vn -0.083051 0.995624 -0.042844
vn -0.144854 0.938514 0.313383
vn -0.108256 0.940998 0.320631
vn -0.019381 0.947896 0.317991
vn -0.457850 0.881807 0.113092
vn -0.148183 0.985409 -0.083731
vn 0.177659 0.974033 -0.140348
vn 0.588019 0.797578 -0.134551
vn 0.371014 0.787386 0.492313
vn -0.399189 0.916489 -0.026379
vn 0.446984 0.789847 -0.419937
vn 0.204437 0.977012 -0.060445
vn -0.929565 -0.116123 -0.349892
vn 0.046625 -0.951142 0.305212
vn -0.296521 -0.921730 0.249979
vn -0.445459 -0.875682 0.186408
vn -0.144087 -0.945533 0.291901
vn -0.522198 -0.820001 0.234324
vn -0.922901 -0.377225 0.077168
vn -0.286497 0.921911 0.260766
vn 0.784600 0.540063 0.304525
vn 0.790614 0.475425 0.385876
vn 0.913431 0.400724 0.071160
vn 0.943059 0.293618 -0.156298
vn 0.393857 -0.289197 -0.872492
vn 0.860707 0.499529 0.098259
vn 0.703970 0.551195 0.447896
vn 0.547863 0.819315 0.169025
vn 0.420823 0.895597 0.144273
vn 0.521086 0.810266 0.268213
vn 0.576117 0.747708 0.330184
vn 0.498081 0.667626 0.553344
vn 0.425926 0.855069 0.295711
vn 0.662536 0.664398 0.345864
vn 0.455736 0.811215 0.366381
vn 0.718188 0.298784 0.628438
vn 0.433324 0.634655 0.639877
vn 0.760801 -0.087686 0.643034
vn 0.842211 0.397684 0.364044
vn 0.134402 0.839675 0.526196
vn -0.087328 0.988159 0.126156
vn 0.391617 0.853749 0.343145
vn 0.305137 0.920622 0.243613
vn 0.001387 0.992223 -0.124464
vn 0.295785 0.926476 0.232709
vn -0.317412 0.399129 -0.860201
vn 0.698745 0.499092 0.512506
vn 0.399661 -0.359143 -0.843379
vn 0.793690 0.604103 -0.071527
vn 0.752217 0.655127 -0.070554
vn 0.428242 -0.882921 0.192507
vn -0.051308 -0.986734 0.154023
vn 0.644175 -0.606358 0.466228
vn 0.644165 -0.606360 0.466240
vn -0.170394 0.951087 -0.257682
vn -0.167232 0.950197 -0.262980
vn -0.167201 0.950190 -0.263026
vn 0.261368 -0.898883 0.351705
vn 0.543783 0.821656 0.170827
vn -0.168390 0.409755 -0.896519
vn 0.839599 0.487471 -0.239677
vn -0.305679 0.926195 0.220734
vn -0.244564 0.960940 -0.129548
vn -0.382384 -0.901449 0.202911
vn -0.553001 -0.832882 -0.022323
vn -0.505012 -0.849503 -0.152667
vn -0.000631 -0.936643 0.350285
vn -0.000006 -0.938971 0.343996
vn -0.001118 -0.841703 0.539940
vn -0.001401 -0.897405 0.441206
vn -0.530610 -0.034819 0.846901
vn -0.530610 -0.034820 0.846900
vn -0.323813 0.945879 -0.021407
vn 0.001383 0.977594 0.210493
vn 0.002408 0.951358 0.308078
vn 0.641866 0.760242 0.100200
vn -0.079398 0.373380 -0.924274
vn 0.951987 0.295251 0.080921
vn -0.323299 0.576990 -0.750040
vn 0.848218 0.527655 0.045895
vn 0.645422 -0.762502 -0.044959
vn 0.889489 0.456939 0.004103
vn 0.539151 -0.714722 -0.445520
vn 0.568233 0.716159 0.405250
vn 0.380254 0.795573 0.471668
vn 0.459766 -0.491955 -0.739321
vn 0.652236 0.552267 0.519221
vn 0.540855 0.665534 0.514335
vn 0.854221 0.464216 0.234116
vn 0.615632 0.623411 0.482033
vn 0.377652 0.591037 0.712780
vn 0.844528 0.474105 0.248993
vn 0.203975 0.977171 -0.059425
vn 0.704486 0.532927 0.468709
vn 0.406530 0.639752 0.652266
vn 0.600506 0.676643 0.426083
vn 0.232046 0.883031 0.407936
vn 0.406431 0.855738 0.320198
vn 0.876328 0.449725 0.172618
vn -0.653631 0.718192 -0.238677
vn 0.691742 -0.714347 0.105838
vn 0.880572 0.473632 0.016325
vn -0.720738 0.691412 0.049862
vn 0.730510 -0.648095 -0.215239
vn -0.139818 0.423658 -0.894966
vn 0.887092 0.449203 0.106222
vn 0.881975 0.447998 0.146345
vn -0.921189 -0.287380 -0.262341
vn -0.696128 -0.330196 -0.637476
vn -0.617478 -0.552731 -0.559651
vn -0.779772 -0.514653 -0.356495
vn -0.739103 -0.591589 -0.322100
vn -0.928467 -0.365137 -0.068005
vn -0.940891 -0.335141 0.049044
vn -0.849224 -0.524633 -0.059818
vn -0.575036 -0.744813 -0.338509
vn -0.681299 -0.543042 -0.490853
vn -0.842029 -0.467955 -0.268338
vn -0.940707 -0.337312 -0.035926
vn -0.768870 -0.544798 -0.334713
vn -0.859140 -0.363451 -0.360254
vn -0.839478 -0.505974 0.198157
vn -0.558284 -0.582955 -0.590324
vn -0.282380 -0.796179 -0.535127
vn -0.476396 -0.838127 -0.265687
vn -0.704823 -0.366861 -0.607155
vn -0.551110 -0.595139 -0.584882
vn -0.433592 -0.785856 -0.440941
vn -0.400405 -0.802651 -0.442072
vn -0.780868 -0.616267 0.102272
vn -0.703713 -0.531929 -0.470998
vn -0.724257 -0.501524 -0.473208
vn -0.544477 -0.747276 -0.380951
vn -0.764305 -0.549634 -0.337254
vn -0.411514 -0.859266 -0.303840
vn -0.654953 -0.660926 -0.366353
vn -0.575280 -0.712964 -0.400917
vn -0.527157 -0.830883 -0.178153
vn -0.345678 -0.910147 -0.228341
vn -0.402647 -0.915112 -0.021098
vn -0.249485 -0.953033 -0.171712
vn -0.619717 -0.635558 -0.460453
vn -0.889742 -0.424966 -0.166622
vn -0.675744 -0.658571 -0.331142
vn -0.615137 -0.664857 -0.423759
vn -0.553165 -0.794233 -0.251401
vn -0.413686 -0.855478 -0.311482
vn -0.424042 -0.870483 -0.249896
vn -0.395720 -0.826759 -0.399844
vn 0.646256 0.685003 0.336339
vn 0.002086 0.946768 0.321909
vn 0.002139 0.963140 0.268994
vn -0.014685 -0.988263 0.152056
vn 0.008396 -0.909329 -0.415992
vn -0.001036 -0.896386 -0.443273
vn 0.000135 -0.892787 -0.450479
vn 0.001041 -0.983980 -0.178278
vn 0.000001 0.999990 -0.004442
vn -0.001310 -0.844302 0.535866
vn 0.747193 -0.289206 -0.598384
vn 0.512796 -0.696148 -0.502413
vn 0.592013 -0.732517 -0.336065
vn 0.738561 -0.366307 -0.565992
vn 0.589501 0.404759 -0.699042
vn 0.333855 0.438371 -0.834489
vn -0.265296 0.646923 -0.714919
vn 0.043456 0.445722 -0.894116
vn -0.281053 0.906450 -0.315211
vn -0.674865 0.641322 -0.365053
vn 0.654621 0.713600 -0.249493
vn 0.170998 0.963797 0.204584
vn -0.499516 0.841898 0.204188
vn -0.590581 0.800642 0.100929
vn 0.591083 0.269931 -0.760104
vn 0.931882 0.189317 -0.309442
vn 0.851254 -0.233173 -0.470103
vn 0.842791 0.329755 -0.425400
vn 0.806475 0.545112 -0.229021
vn 0.505488 0.271160 -0.819118
vn 0.826014 0.387173 -0.409632
vn 0.981519 0.114666 0.153204
vn 0.730195 0.195068 -0.654801
vn 0.902299 0.201590 -0.381075
vn 0.858331 -0.508362 0.069546
vn 0.691939 -0.717913 -0.076293
vn 0.643956 -0.740784 -0.191206
vn 0.744358 -0.575636 -0.338488
vn 0.690915 -0.536068 -0.485044
vn 0.907177 -0.358199 0.220734
vn 0.954829 -0.278158 0.104543
vn 0.771728 -0.500165 0.392774
vn 0.995627 -0.020588 0.091120
vn 0.659424 -0.353981 -0.663217
vn 0.489576 0.434287 -0.756115
vn 0.599083 -0.666660 -0.443468
vn 0.537655 -0.404536 -0.739782
vn 0.390178 -0.886898 -0.247333
vn 0.310903 0.943682 0.113157
vn 0.923863 -0.182969 -0.336153
vn 0.666076 -0.627613 -0.403044
vn 0.905954 0.338787 -0.253910
vn 0.642412 0.764061 -0.059314
vn 0.172808 0.971907 -0.159792
vn 0.172619 0.980073 -0.098279
vn 0.603459 -0.686634 -0.405428
vn 0.889627 -0.190004 -0.415285
vn 0.874935 0.312794 -0.369660
vn 0.556396 0.792799 -0.248783
vn 0.606449 0.765994 -0.213243
vn 0.789243 0.385553 -0.477959
vn 0.770410 -0.140495 -0.621875
vn 0.600349 -0.675323 -0.428391
vn 0.593490 -0.762692 -0.257042
vn 0.791057 -0.189571 -0.581629
vn 0.535455 0.544581 -0.645538
vn -0.001655 -0.927697 0.373330
vn -0.007613 -0.940236 0.340438
vn 0.259033 -0.907577 0.330463
vn 0.299542 -0.892936 0.336066
vn 0.030386 -0.926426 0.375249
vn 0.310987 -0.866831 0.389732
vn 0.223131 -0.863395 0.452506
vn 0.236365 -0.894333 0.379868
vn 0.734168 -0.674341 0.079127
vn 0.591879 -0.772994 0.228386
vn 0.676121 -0.736745 -0.008204
vn 0.473112 0.878994 0.059445
vn 0.262383 0.960072 0.097046
vn 0.259861 0.944483 0.201058
vn 0.611548 0.758326 0.225724
vn 0.232151 0.951873 0.200108
vn 0.656105 0.750603 0.078240
vn 0.426371 -0.236697 0.873031
vn 0.429395 -0.244897 0.869279
vn 0.429394 -0.244893 0.869280
vn 0.137903 0.967475 0.212074
vn 0.084468 0.995389 -0.045452
vn -0.078563 0.994369 -0.071115
vn 0.147764 0.972629 0.179329
vn 0.154604 0.940788 0.301687
vn 0.024069 0.948337 0.316352
vn 0.113684 0.941174 0.318225
vn 0.187061 0.968568 -0.163965
vn 0.493174 0.868861 0.043125
vn -0.551285 0.816131 -0.173250
vn -0.132928 0.970267 -0.202269
vn 0.431939 0.896287 -0.100490
vn -0.364933 0.808356 0.461936
vn -0.201000 0.975399 -0.090530
vn -0.445450 0.772951 -0.451798
vn 0.924053 -0.130801 -0.359190
vn -0.078424 -0.921438 0.380528
vn 0.132404 -0.937363 0.322210
vn 0.434525 -0.875644 0.210800
vn 0.263751 -0.912199 0.313573
vn 0.922936 -0.378482 0.070287
vn 0.497957 -0.822954 0.273468
vn 0.307075 0.923682 0.229165
vn -0.786097 0.497490 0.366816
vn -0.780372 0.557958 0.282318
vn -0.911410 0.407504 0.057208
vn -0.845486 0.528544 0.076122
vn -0.401557 -0.331974 -0.853549
vn -0.943144 0.288983 -0.164218
vn -0.698557 0.576298 0.424145
vn -0.506632 0.854279 0.116323
vn -0.538594 0.792579 0.285893
vn -0.456135 0.860198 0.228033
vn -0.366527 0.926190 0.088489
vn -0.404826 0.855117 0.323867
vn -0.597428 0.721624 0.349769
vn -0.356266 0.895002 0.268413
vn -0.460907 0.722714 0.515024
vn -0.612346 0.326515 0.720015
vn -0.608946 -0.101511 0.786690
vn -0.340446 0.669864 0.659833
vn -0.789929 0.466742 0.397698
vn -0.073506 0.871418 0.485003
vn 0.116963 0.993116 0.006275
vn -0.235375 0.954836 0.181348
vn -0.306467 0.903984 0.298146
vn 0.033544 0.968036 -0.248559
vn 0.215599 0.269599 -0.938527
vn -0.237928 0.962652 0.129196
vn -0.671686 0.555861 0.489752
vn -0.407448 -0.400137 -0.820900
vn -0.770532 0.629215 -0.101829
vn -0.726475 0.679062 -0.105401
vn 0.006631 -0.975413 0.220286
vn -0.465730 -0.844465 0.264527
vn -0.663151 -0.540281 0.518003
vn -0.663131 -0.540277 0.518033
vn 0.206084 0.920202 -0.332802
vn 0.212532 0.922246 -0.322944
vn 0.212474 0.922229 -0.323031
vn -0.300994 -0.860566 0.410888
vn 0.145463 0.295886 -0.944082
vn -0.522234 0.848605 0.084509
vn -0.839290 0.478491 -0.258143
vn 0.307877 0.925822 0.219237
vn 0.279847 0.936629 -0.210740
vn 0.349215 -0.899380 0.262990
vn 0.613319 -0.762477 0.206080
vn 0.451728 -0.884659 -0.115415
vn 0.323814 0.945878 -0.021410
vn 0.092583 0.305389 -0.947716
vn -0.605390 0.794340 0.050266
vn -0.942488 0.329159 0.058058
vn 0.348430 0.512671 -0.784707
vn -0.829059 0.558917 0.016539
vn -0.671651 -0.740692 -0.016098
vn -0.549020 -0.729538 -0.407863
vn -0.874658 0.484140 -0.024113
vn -0.536298 0.775241 0.333746
vn -0.286122 0.869888 0.401782
vn -0.467594 -0.525897 -0.710485
vn -0.576216 0.635302 0.514165
vn -0.434636 0.742884 0.509131
vn -0.850757 0.479009 0.216245
vn -0.555207 0.666857 0.497038
vn -0.280254 0.618963 0.733718
vn -0.840899 0.489644 0.230517
vn -0.167953 0.977331 -0.128899
vn -0.673944 0.564378 0.476736
vn -0.302782 0.675590 0.672236
vn -0.530405 0.730624 0.429953
vn -0.104582 0.932841 0.344777
vn -0.342079 0.906755 0.246532
vn -0.869920 0.476071 0.128828
vn 0.670863 0.689638 -0.272660
vn -0.706940 -0.693455 0.139125
vn -0.871631 0.489294 -0.029177
vn 0.732737 0.680271 0.018111
vn -0.739021 -0.647479 -0.186061
vn 0.162205 0.362847 -0.917623
vn -0.884349 0.458168 0.089493
vn -0.879163 0.458561 0.129589
vn 0.918234 -0.304120 -0.253687
vn 0.690473 -0.364682 -0.624703
vn 0.722666 -0.624736 -0.295734
vn 0.775177 -0.535414 -0.335308
vn 0.611200 -0.583246 -0.535032
vn 0.940023 -0.335925 0.059255
vn 0.926508 -0.372115 -0.055794
vn 0.823770 -0.566148 -0.029664
vn 0.817016 -0.524415 -0.239737
vn 0.612617 -0.625035 -0.483767
vn 0.507343 -0.806033 -0.304817
vn 0.918172 -0.395681 -0.019915
vn 0.814165 -0.533860 0.228318
vn 0.808318 -0.431725 -0.400296
vn 0.710744 -0.607104 -0.355341
vn 0.470127 -0.611917 -0.636033
vn 0.215934 -0.825408 -0.521608
vn 0.409412 -0.879418 -0.242911
vn 0.605053 -0.394149 -0.691778
vn 0.429680 -0.679774 -0.594376
vn 0.330240 -0.848923 -0.412640
vn 0.315437 -0.874420 -0.368632
vn 0.753483 -0.643999 0.132394
vn 0.680888 -0.580587 -0.446441
vn 0.703516 -0.551408 -0.448346
vn 0.523907 -0.799228 -0.294544
vn 0.735680 -0.606533 -0.301485
vn 0.383357 -0.887130 -0.256979
vn 0.631305 -0.700961 -0.331825
vn 0.552588 -0.750436 -0.362619
vn 0.508158 -0.856639 -0.089133
vn 0.283546 -0.949062 -0.137414
vn 0.360598 -0.931797 0.041512
vn 0.191880 -0.976527 -0.097864
vn 0.560071 -0.677092 -0.477354
vn 0.886883 -0.436609 -0.151032
vn 0.615774 -0.716792 -0.327157
vn 0.545578 -0.719193 -0.430240
vn 0.518772 -0.835570 -0.180827
vn 0.349106 -0.905926 -0.239631
vn 0.411249 -0.892209 -0.186649
vn 0.386474 -0.857598 -0.339357
vn -0.583696 0.741205 0.331534
s 1
g default1
usemtl default1SG1
f 3/1/1 2/2/2 1/3/3 4/4/4
f 5/5/5 6/6/6 241/7/7 242/8/8
f 7/9/9 224/10/10 244/11/11 8/12/12
f 9/13/13 7/9/9 11/14/14 10/15/15
f 9/13/13 478/615/16 481/16/17 12/17/18
f 9/13/13 12/17/18 250/18/19 251/19/20
f 17/20/21 16/21/22 15/22/23 14/23/24
f 16/24/22 17/25/21 19/26/25 18/27/26
f 12/17/18 21/28/27 20/29/28
f 480/616/29 21/28/27 12/17/18
f 8/12/12 6/6/6 22/30/30 23/31/31
f 25/32/32 24/33/33 13/34/34 477/35/35
f 7/9/9 8/12/12 23/31/31 11/14/14
f 24/33/33 25/32/32 26/36/36 27/37/37
f 21/38/27 479/617/38 24/33/33 27/37/37
f 26/36/36 11/39/14 23/40/31 28/41/39
f 25/32/32 476/618/40 11/39/14 26/36/36
f 22/42/30 16/24/22 18/27/26 29/43/41
f 23/40/31 22/42/30 29/43/41 28/41/39
f 29/43/41 30/44/42 28/41/39
f 19/26/25 30/44/42 29/43/41 18/27/26
f 27/37/37 26/36/36 28/41/39 30/44/42
f 5/5/5 22/30/30 6/6/6
f 31/45/43 5/5/5 242/8/8 225/46/44
f 5/5/5 2/2/2 3/1/1 22/30/30
f 16/21/22 22/30/30 3/1/1 15/22/23
f 15/22/23 3/1/1 4/4/4 32/47/45
f 5/5/5 31/45/43 33/48/46 2/2/2
f 226/49/47 217/50/48 34/51/49 33/48/46
f 33/48/46 34/51/49 1/3/3 2/2/2
f 21/38/27 27/37/37 30/44/42 20/52/28
f 20/29/28 17/20/21 14/23/24
f 30/44/42 19/26/25 17/25/21 20/52/28
f 35/53/50 274/54/51 250/18/19 12/17/18
f 32/47/45 37/55/52 36/56/53 15/22/23
f 36/56/53 38/57/54 14/23/24 15/22/23
f 38/57/54 39/58/55 20/29/28 14/23/24
f 39/58/55 35/53/50 12/17/18 20/29/28
f 41/59/56 281/60/57 282/61/58 40/62/59
f 42/63/60 37/55/52 284/64/61 227/65/62
f 37/55/52 42/63/60 43/66/63 36/56/53
f 44/67/64 38/57/54 36/56/53 43/66/63
f 45/68/65 40/62/59 35/53/50 39/58/55
f 45/68/65 39/58/55 38/57/54 44/67/64
f 41/59/56 40/62/59 45/68/65 46/69/66
f 44/67/64 47/70/67 46/69/66 45/68/65
f 43/66/63 48/71/68 47/70/67 44/67/64
f 43/66/63 42/63/60 49/72/69 48/71/68
f 51/73/70 50/74/71 48/75/68 49/76/69
f 52/77/72 47/78/67 48/75/68 50/74/71
f 42/63/60 227/65/62 295/79/73 49/72/69
f 129/80/74 130/81/75 54/82/76 53/83/77
f 55/84/78 58/85/79 57/86/80 56/87/81
f 60/88/82 218/89/83 306/90/84 59/91/85
f 60/88/82 61/92/86 219/93/87 218/89/83
f 52/94/72 62/95/88 46/96/66 47/97/67
f 63/98/89 220/99/90 281/100/57 41/101/56
f 41/101/56 46/96/66 62/95/88 63/98/89
f 63/98/89 62/95/88 65/102/91 64/103/92
f 64/103/92 312/104/93 220/99/90 63/98/89
f 64/103/92 65/102/91 74/105/94 71/106/95
f 68/107/96 67/108/97 66/109/98
f 70/110/99 69/111/100 77/112/101 76/113/102
f 72/114/103 73/115/104 213/116/105 71/106/95
f 69/111/100 128/117/106 78/118/107 77/112/101
f 77/112/101 78/118/107 80/119/108 79/120/109
f 74/105/94 65/102/91 82/121/110 81/122/111
f 52/94/72 212/123/112 83/124/113 62/95/88
f 50/74/71 51/73/70 61/92/86 216/125/114
f 84/126/115 85/127/116 86/128/117 131/129/118
f 60/88/82 59/91/85 214/130/119 215/131/120
f 61/92/86 60/88/82 215/131/120 216/125/114
f 87/132/121 72/114/103 71/106/95 74/105/94
f 83/124/113 89/133/122 88/134/123 82/121/110
f 94/135/124 93/136/125 92/137/126 91/138/127
f 89/133/122 94/135/124 95/139/128 88/134/123
f 154/140/129 98/141/130 97/142/131 96/143/132
f 99/144/133 102/145/134 101/146/135 100/147/136
f 105/148/137 104/149/138 103/150/139
f 104/149/138 105/148/137 106/151/140 101/146/135
f 104/149/138 107/152/141 103/150/139
f 104/149/138 101/146/135 102/145/134 107/152/141
f 108/153/142 109/154/143 114/155/144
f 111/156/145 113/157/146 112/158/147
f 98/141/130 114/155/144 109/154/143 97/142/131
f 115/159/148 100/147/136 101/146/135 106/151/140
f 209/160/149 116/161/150 91/138/127 92/137/126
f 116/161/150 209/160/149 117/162/151
f 85/127/116 84/126/115 119/163/152 118/164/153
f 79/120/109 121/165/154 120/166/155 119/167/152
f 122/168/156 124/169/157 123/170/158 80/119/108
f 119/163/152 120/171/155 125/172/159 118/164/153
f 120/166/155 121/165/154 123/170/158 125/173/159
f 112/158/147 113/157/146 127/174/160 126/175/161
f 94/135/124 89/133/122 90/176/162 93/136/125
f 95/139/128 94/135/124 91/138/127 115/159/148
f 82/121/110 65/102/91 62/95/88 83/124/113
f 55/84/78 129/80/74 131/129/118 58/85/79
f 128/117/106 69/111/100 87/132/121 74/105/94
f 69/111/100 70/110/99 72/114/103 87/132/121
f 70/110/99 132/177/163 73/115/104 72/114/103
f 74/105/94 81/122/111 133/178/164 128/117/106
f 78/118/107 128/117/106 133/178/164
f 122/168/156 80/119/108 78/118/107 133/178/164
f 134/179/165 85/127/116 118/164/153 135/180/166
f 79/120/109 80/119/108 123/170/158 121/165/154
f 135/180/166 118/164/153 125/172/159 136/181/167
f 136/182/167 125/173/159 123/170/158 124/169/157
f 77/112/101 79/120/109 68/107/96 76/113/102
f 79/120/109 119/167/152 68/107/96
f 53/83/77 84/126/115 131/129/118 129/80/74
f 68/183/96 119/163/152 84/126/115 53/83/77
f 58/85/79 131/129/118 86/128/117 59/91/85
f 56/87/81 130/81/75 129/80/74 55/84/78
f 130/81/75 387/184/168 228/185/169 54/82/76
f 56/87/81 57/86/80 222/186/170 221/187/171
f 54/82/76 67/188/97 68/183/96 53/83/77
f 66/109/98 67/108/97 230/189/172 229/190/173
f 70/110/99 76/113/102 75/191/174 132/177/163
f 68/107/96 66/109/98 75/191/174 76/113/102
f 73/115/104 132/177/163 231/192/175 223/193/176
f 127/174/160 138/194/177 137/195/178 126/175/161
f 116/161/150 100/147/136 115/159/148 91/138/127
f 159/196/179 157/197/180 137/195/178 138/194/177
f 99/144/133 117/162/151 139/198/181 96/143/132
f 158/199/182 159/196/179 141/200/183 140/201/184
f 138/194/177 127/174/160 142/202/185 154/140/129
f 154/140/129 141/200/183 159/196/179 138/194/177
f 142/202/185 127/174/160 113/157/146 143/203/186
f 143/203/186 113/157/146 111/156/145
f 117/162/151 209/160/149 144/204/187 139/198/181
f 116/161/150 117/162/151 99/144/133 100/147/136
f 96/143/132 97/142/131 145/205/188 99/144/133
f 97/142/131 109/154/143 110/206/189 145/205/188
f 96/143/132 139/198/181 141/200/183 154/140/129
f 139/198/181 144/204/187 140/201/184 141/200/183
f 108/153/142 110/206/189 109/154/143
f 146/207/190 81/122/111 82/121/110 88/134/123
f 115/159/148 106/151/140 147/208/191
f 147/208/191 106/151/140 105/148/137
f 105/148/137 103/150/139 151/209/192 147/208/191
f 149/210/193 148/211/194 133/178/164 146/207/190
f 133/178/164 148/211/194 122/168/156
f 115/159/148 147/208/191 95/139/128
f 151/209/192 150/212/195 146/207/190 147/208/191
f 153/213/196 103/150/139 107/152/141 152/214/197
f 155/215/198 108/153/142 114/155/144 156/216/199
f 98/141/130 156/216/199 114/155/144
f 155/215/198 156/216/199 143/203/186 111/156/145
f 156/216/199 154/140/129 142/202/185
f 161/217/200 160/218/201 157/197/180 159/196/179
f 162/219/202 161/217/200 159/196/179 158/199/182
f 164/220/203 163/221/204 160/218/201 161/217/200
f 162/219/202 165/222/205 164/220/203 161/217/200
f 164/220/203 166/223/206 163/221/204
f 165/222/205 166/223/206 164/220/203
f 168/224/207 92/137/126 93/136/125
f 167/225/208 168/224/207 93/136/125 90/176/162
f 50/74/71 216/125/114 212/226/112 52/77/72
f 169/227/209 211/228/210 212/226/112 216/125/114
f 92/229/126 210/230/211 172/231/212 171/232/213
f 169/227/209 170/233/214 173/234/215 172/231/212
f 177/235/216 176/236/217 175/237/218 174/238/219
f 181/239/220 180/240/221 179/241/222 178/242/223
f 183/243/224 182/244/225 103/245/139
f 183/243/224 180/240/221 184/246/226 182/244/225
f 103/245/139 185/247/227 183/243/224
f 183/243/224 185/247/227 179/241/222 180/240/221
f 189/248/228 187/249/229 108/250/142
f 112/251/147 188/252/230 111/253/145
f 175/237/218 176/236/217 187/249/229 189/248/228
f 180/240/221 181/239/220 190/254/231 184/246/226
f 171/232/213 191/255/232 209/256/149 92/229/126
f 191/255/232 192/257/233 209/256/149
f 112/251/147 126/258/161 193/259/234 188/252/230
f 168/260/207 167/261/208 211/228/210 210/230/211
f 173/234/215 190/254/231 171/232/213 172/231/212
f 193/259/234 126/258/161 137/262/178 194/263/235
f 191/255/232 171/232/213 190/254/231 181/239/220
f 206/264/236 194/263/235 137/262/178 157/265/180
f 178/242/223 177/235/216 195/266/237 192/257/233
f 158/267/182 140/268/184 196/269/238 206/264/236
f 194/263/235 174/238/219 197/270/239 193/259/234
f 174/238/219 194/263/235 206/264/236 196/269/238
f 197/270/239 198/271/240 188/252/230 193/259/234
f 188/252/230 198/271/240 111/253/145
f 192/257/233 195/266/237 144/272/187 209/256/149
f 191/255/232 181/239/220 178/242/223 192/257/233
f 177/235/216 178/242/223 199/273/241 176/236/217
f 176/236/217 199/273/241 186/274/242 187/249/229
f 177/235/216 174/238/219 196/269/238 195/266/237
f 195/266/237 196/269/238 140/268/184 144/272/187
f 187/249/229 186/274/242 108/250/142
f 190/254/231 200/275/243 184/246/226
f 182/244/225 184/246/226 200/275/243
f 103/245/139 182/244/225 200/275/243 151/276/192
f 86/128/117 85/127/116 134/179/165 59/91/85
f 214/130/119 59/91/85 134/179/165
f 135/180/166 122/277/156 148/278/194 134/179/165
f 190/254/231 173/234/215 200/275/243
f 170/233/214 201/279/244 200/275/243 173/234/215
f 201/279/244 149/280/193 150/281/195
f 179/241/222 202/282/245 178/242/223
f 199/273/241 202/282/245 203/283/246 186/274/242
f 186/274/242 203/283/246 153/284/196 108/250/142
f 179/241/222 185/247/227 203/283/246 202/282/245
f 185/247/227 103/245/139 153/284/196 203/283/246
f 204/285/247 197/270/239 174/238/219
f 155/286/198 205/287/248 189/248/228 108/250/142
f 175/237/218 189/248/228 205/287/248 204/285/247
f 198/271/240 205/287/248 155/286/198 111/253/145
f 205/287/248 198/271/240 197/270/239 204/285/247
f 206/264/236 157/265/180 160/288/201 207/289/249
f 206/264/236 207/289/249 162/290/202 158/267/182
f 160/288/201 163/291/204 208/292/250 207/289/249
f 162/290/202 207/289/249 208/292/250 165/293/205
f 208/292/250 163/291/204 166/294/206
f 165/293/205 208/292/250 166/294/206
f 136/182/167 124/169/157 122/168/156 135/295/166
f 145/205/188 110/206/189 152/214/197 469/296/251
f 153/213/196 152/214/197 110/206/189 108/153/142
f 211/228/210 167/261/208 212/226/112
f 92/229/126 168/260/207 210/230/211
f 211/228/210 169/227/209 172/231/212 210/230/211
f 90/176/162 89/133/122 83/124/113 212/123/112
f 212/123/112 167/225/208 90/176/162
f 213/116/105 463/297/252 464/298/253 71/106/95
f 152/214/197 107/152/141 102/145/134 469/296/251
f 202/282/245 199/273/241 178/242/223
f 174/238/219 175/237/218 204/285/247
f 142/202/185 143/203/186 156/216/199
f 98/141/130 154/140/129 156/216/199
f 150/212/195 149/210/193 146/207/190
f 133/178/164 81/122/111 146/207/190
f 201/279/244 150/281/195 151/276/192 200/275/243
f 134/179/165 201/279/244 214/130/119
f 201/279/244 170/233/214 215/131/120 214/130/119
f 170/233/214 169/227/209 216/125/114 215/131/120
f 134/179/165 148/278/194 149/280/193 201/279/244
f 146/207/190 88/134/123 95/139/128 147/208/191
f 465/299/254 1/3/3 34/51/49 217/50/48
f 232/300/255 1/3/3 465/299/254
f 6/6/6 8/12/12 244/11/11 241/7/7
f 224/10/10 7/9/9 9/13/13 251/19/20
f 233/301/256 4/4/4 1/3/3 232/300/255
f 234/302/257 32/47/45 4/4/4 233/301/256
f 33/48/46 31/45/43 225/46/44 226/49/47
f 274/54/51 35/53/50 40/62/59 282/61/58
f 37/55/52 32/47/45 234/302/257 284/64/61
f 387/184/168 130/81/75 56/87/81 221/187/171
f 61/92/86 51/73/70 466/303/258 219/93/87
f 51/73/70 49/76/69 295/304/73 466/303/258
f 312/104/93 64/103/92 71/106/95 464/298/253
f 67/188/97 54/82/76 228/185/169 230/305/172
f 132/177/163 75/191/174 467/306/259 231/192/175
f 467/306/259 75/191/174 66/109/98 229/190/173
f 222/186/170 57/86/80 468/307/260
f 213/116/105 73/115/104 223/193/176 463/297/252
f 58/85/79 59/91/85 306/90/84 57/86/80
f 468/307/260 57/86/80 306/90/84
f 237/308/261 236/309/262 235/310/263 238/311/264
f 239/312/265 242/313/8 241/314/7 240/315/266
f 243/316/267 245/317/268 244/318/11 224/319/10
f 248/320/269 247/321/270 246/322/271 243/316/267
f 248/320/269 249/323/272 472/324/273 475/619/274
f 248/320/269 251/325/20 250/326/19 249/323/272
f 253/327/275 252/328/276 255/329/277 254/330/278
f 254/331/278 257/332/279 256/333/280 253/334/275
f 249/323/272 259/335/281 258/336/282
f 472/324/273 249/323/272 258/336/282
f 245/317/268 261/337/283 260/338/284 240/315/266
f 262/339/285 474/340/286 471/341/287 263/342/288
f 243/316/267 246/322/271 261/337/283 245/317/268
f 263/342/288 265/343/289 264/344/290 262/339/285
f 258/345/282 265/343/289 263/342/288 471/341/287
f 264/344/290 266/346/291 261/347/283 246/348/271
f 262/339/285 264/344/290 246/348/271 473/620/292
f 260/349/284 267/350/293 257/332/279 254/331/278
f 261/347/283 266/346/291 267/350/293 260/349/284
f 267/350/293 266/346/291 268/351/294
f 256/333/280 257/332/279 267/350/293 268/351/294
f 265/343/289 268/351/294 266/346/291 264/344/290
f 239/312/265 240/315/266 260/338/284
f 269/352/295 225/353/44 242/313/8 239/312/265
f 239/312/265 260/338/284 237/308/261 238/311/264
f 254/330/278 255/329/277 237/308/261 260/338/284
f 255/329/277 270/354/296 236/309/262 237/308/261
f 239/312/265 238/311/264 271/355/297 269/352/295
f 226/356/47 271/355/297 272/357/298 217/358/48
f 271/355/297 238/311/264 235/310/263 272/357/298
f 258/345/282 259/359/281 268/351/294 265/343/289
f 259/335/281 252/328/276 253/327/275
f 268/351/294 259/359/281 253/334/275 256/333/280
f 273/360/299 249/323/272 250/326/19 274/361/51
f 270/354/296 255/329/277 275/362/300 276/363/301
f 275/362/300 255/329/277 252/328/276 277/364/302
f 277/364/302 252/328/276 259/335/281 278/365/303
f 278/365/303 259/335/281 249/323/272 273/360/299
f 280/366/304 279/367/305 282/368/58 281/369/57
f 283/370/306 227/371/62 284/372/61 276/363/301
f 276/363/301 275/362/300 285/373/307 283/370/306
f 286/374/308 285/373/307 275/362/300 277/364/302
f 287/375/309 278/365/303 273/360/299 279/367/305
f 287/375/309 286/374/308 277/364/302 278/365/303
f 280/366/304 288/376/310 287/375/309 279/367/305
f 286/374/308 287/375/309 288/376/310 289/377/311
f 285/373/307 286/374/308 289/377/311 290/378/312
f 285/373/307 290/378/312 291/379/313 283/370/306
f 293/380/314 291/381/313 290/382/312 292/383/315
f 294/384/316 292/383/315 290/382/312 289/385/311
f 283/370/306 291/379/313 295/386/73 227/371/62
f 297/387/317 296/388/318 299/389/319 298/390/320
f 300/391/321 303/392/322 302/393/323 301/394/324
f 305/395/325 304/396/326 306/397/84 218/398/83
f 305/395/325 218/398/83 219/399/87 307/400/327
f 294/401/316 289/402/311 288/403/310 308/404/328
f 309/405/329 280/406/304 281/407/57 220/408/90
f 280/406/304 309/405/329 308/404/328 288/403/310
f 309/405/329 311/409/330 310/410/331 308/404/328
f 311/409/330 309/405/329 220/408/90 312/411/93
f 311/409/330 314/412/332 313/413/333 310/410/331
f 315/414/334 317/415/335 316/416/336
f 318/417/337 321/418/338 320/419/339 319/420/340
f 322/421/341 314/412/332 324/422/342 323/423/343
f 319/420/340 320/419/339 326/424/344 325/425/345
f 320/419/339 328/426/346 327/427/347 326/424/344
f 313/413/333 329/428/348 330/429/349 310/410/331
f 294/401/316 308/404/328 332/430/350 331/431/351
f 292/383/315 333/432/352 307/400/327 293/380/314
f 334/433/353 337/434/354 336/435/355 335/436/356
f 305/395/325 339/437/357 338/438/358 304/396/326
f 307/400/327 333/432/352 339/437/357 305/395/325
f 340/439/359 313/413/333 314/412/332 322/421/341
f 332/430/350 330/429/349 342/440/360 341/441/361
f 344/442/362 343/443/363 346/444/364 345/445/365
f 341/441/361 342/440/360 347/446/366 344/442/362
f 348/447/367 351/448/368 350/449/369 349/450/370
f 355/451/371 354/452/372 353/453/373 352/454/374
f 356/455/375 358/456/376 357/457/377
f 357/457/377 354/452/372 359/458/378 356/455/375
f 357/457/377 358/456/376 360/459/379
f 357/457/377 360/459/379 353/453/373 354/452/372
f 361/460/380 363/461/381 362/462/382
f 364/463/383 366/464/384 365/465/385
f 349/450/370 350/449/369 362/462/382 363/461/381
f 367/466/386 359/458/378 354/452/372 355/451/371
f 368/467/387 346/444/364 343/443/363 369/468/388
f 369/468/388 370/469/389 368/467/387
f 335/436/356 372/470/390 371/471/391 334/433/353
f 328/426/346 371/472/391 374/473/392 373/474/393
f 375/475/394 327/427/347 377/476/395 376/477/396
f 371/471/391 372/470/390 378/478/397 374/479/392
f 374/473/392 378/480/397 377/476/395 373/474/393
f 366/464/384 380/481/398 379/482/399 365/465/385
f 344/442/362 345/445/365 381/483/400 341/441/361
f 347/446/366 367/466/386 343/443/363 344/442/362
f 330/429/349 332/430/350 308/404/328 310/410/331
f 300/391/321 301/394/324 337/434/354 297/387/317
f 325/425/345 313/413/333 340/439/359 319/420/340
f 319/420/340 340/439/359 322/421/341 318/417/337
f 318/417/337 322/421/341 323/423/343 382/484/401
f 383/485/402 329/428/348 313/413/333 325/425/345
f 326/424/344 383/485/402 325/425/345
f 375/475/394 383/485/402 326/424/344 327/427/347
f 385/486/403 384/487/404 372/470/390 335/436/356
f 328/426/346 373/474/393 377/476/395 327/427/347
f 384/487/404 386/488/405 378/478/397 372/470/390
f 386/489/405 376/477/396 377/476/395 378/480/397
f 320/419/339 321/418/338 315/414/334 328/426/346
f 328/426/346 315/414/334 371/472/391
f 296/388/318 297/387/317 337/434/354 334/433/353
f 315/490/334 296/388/318 334/433/353 371/471/391
f 301/394/324 304/396/326 336/435/355 337/434/354
f 303/392/322 300/391/321 297/387/317 298/390/320
f 298/390/320 299/389/319 228/491/169 387/492/168
f 303/392/322 221/493/171 222/494/170 302/393/323
f 299/389/319 296/388/318 315/490/334 316/495/336
f 317/415/335 229/496/173 230/497/172 316/416/336
f 318/417/337 382/484/401 388/498/406 321/418/338
f 315/414/334 321/418/338 388/498/406 317/415/335
f 323/423/343 223/499/176 231/500/175 382/484/401
f 379/482/399 380/481/398 390/501/407 389/502/408
f 369/468/388 343/443/363 367/466/386 355/451/371
f 392/503/409 389/502/408 390/501/407 391/504/410
f 352/454/374 351/448/368 393/505/411 370/469/389
f 396/506/412 395/507/413 394/508/414 392/503/409
f 389/502/408 348/447/367 397/509/415 379/482/399
f 348/447/367 389/502/408 392/503/409 394/508/414
f 397/509/415 398/510/416 365/465/385 379/482/399
f 398/510/416 364/463/383 365/465/385
f 370/469/389 393/505/411 399/511/417 368/467/387
f 369/468/388 355/451/371 352/454/374 370/469/389
f 351/448/368 352/454/374 400/512/418 350/449/369
f 350/449/369 400/512/418 401/513/419 362/462/382
f 351/448/368 348/447/367 394/508/414 393/505/411
f 393/505/411 394/508/414 395/507/413 399/511/417
f 361/460/380 362/462/382 401/513/419
f 402/514/420 342/440/360 330/429/349 329/428/348
f 367/466/386 403/515/421 359/458/378
f 403/515/421 356/455/375 359/458/378
f 356/455/375 403/515/421 404/516/422 358/456/376
f 405/517/423 402/514/420 383/485/402 406/518/424
f 383/485/402 375/475/394 406/518/424
f 367/466/386 347/446/366 403/515/421
f 404/516/422 403/515/421 402/514/420 407/519/425
f 409/520/426 408/521/427 360/459/379 358/456/376
f 410/522/428 411/523/429 363/461/381 361/460/380
f 349/450/370 363/461/381 411/523/429
f 410/522/428 364/463/383 398/510/416 411/523/429
f 411/523/429 397/509/415 348/447/367
f 412/524/430 392/503/409 391/504/410 413/525/431
f 414/526/432 396/506/412 392/503/409 412/524/430
f 415/527/433 412/524/430 413/525/431 416/528/434
f 414/526/432 412/524/430 415/527/433 417/529/435
f 415/527/433 416/528/434 418/530/436
f 417/529/435 415/527/433 418/530/436
f 419/531/437 345/445/365 346/444/364
f 420/532/438 381/483/400 345/445/365 419/531/437
f 292/383/315 294/384/316 331/533/351 333/432/352
f 421/534/439 333/432/352 331/533/351 422/535/440
f 346/536/364 423/537/441 425/538/442 424/539/443
f 421/534/439 425/538/442 427/540/444 426/541/445
f 429/542/446 428/543/447 431/544/448 430/545/449
f 433/546/450 432/547/451 435/548/452 434/549/453
f 436/550/454 358/551/376 437/552/455
f 436/550/454 437/552/455 438/553/456 434/549/453
f 358/551/376 436/550/454 439/554/457
f 436/550/454 434/549/453 435/548/452 439/554/457
f 440/555/458 361/556/380 441/557/459
f 366/558/384 364/559/383 442/560/460
f 431/544/448 440/555/458 441/557/459 430/545/449
f 434/549/453 438/553/456 443/561/461 433/546/450
f 423/537/441 346/536/364 368/562/387 444/563/462
f 444/563/462 368/562/387 445/564/463
f 366/558/384 442/560/460 446/565/464 380/566/398
f 419/567/437 424/539/443 422/535/440 420/568/438
f 427/540/444 425/538/442 423/537/441 443/561/461
f 446/565/464 447/569/465 390/570/407 380/566/398
f 444/563/462 433/546/450 443/561/461 423/537/441
f 448/571/466 391/572/410 390/570/407 447/569/465
f 432/547/451 445/564/463 449/573/467 429/542/446
f 396/574/412 448/571/466 450/575/468 395/576/413
f 447/569/465 446/565/464 451/577/469 428/543/447
f 428/543/447 450/575/468 448/571/466 447/569/465
f 451/577/469 446/565/464 442/560/460 452/578/470
f 442/560/460 364/559/383 452/578/470
f 445/564/463 368/562/387 399/579/417 449/573/467
f 444/563/462 445/564/463 432/547/451 433/546/450
f 429/542/446 430/545/449 453/580/471 432/547/451
f 430/545/449 441/557/459 454/581/472 453/580/471
f 429/542/446 449/573/467 450/575/468 428/543/447
f 449/573/467 399/579/417 395/576/413 450/575/468
f 441/557/459 361/556/380 454/581/472
f 443/561/461 438/553/456 455/582/473
f 437/552/455 455/582/473 438/553/456
f 358/551/376 404/583/422 455/582/473 437/552/455
f 385/486/403 335/436/356 336/435/355 304/396/326
f 338/438/358 385/486/403 304/396/326
f 384/487/404 385/486/403 406/584/424 375/585/394
f 443/561/461 455/582/473 427/540/444
f 426/541/445 427/540/444 455/582/473 456/586/474
f 456/586/474 407/587/425 405/588/423
f 435/548/452 432/547/451 457/589/475
f 453/580/471 454/581/472 458/590/476 457/589/475
f 454/581/472 361/556/380 409/591/426 458/590/476
f 435/548/452 457/589/475 458/590/476 439/554/457
f 439/554/457 458/590/476 409/591/426 358/551/376
f 459/592/477 428/543/447 451/577/469
f 410/593/428 361/556/380 440/555/458 460/594/478
f 431/544/448 459/592/477 460/594/478 440/555/458
f 452/578/470 364/559/383 410/593/428 460/594/478
f 460/594/478 459/592/477 451/577/469 452/578/470
f 448/571/466 461/595/479 413/596/431 391/572/410
f 448/571/466 396/574/412 414/597/432 461/595/479
f 413/596/431 461/595/479 462/598/480 416/599/434
f 414/597/432 417/600/435 462/598/480 461/595/479
f 462/598/480 418/601/436 416/599/434
f 417/600/435 418/601/436 462/598/480
f 386/489/405 384/602/404 375/475/394 376/477/396
f 352/454/374 470/603/481 400/512/418
f 409/520/426 361/460/380 401/513/419 408/521/427
f 422/535/440 331/533/351 420/568/438
f 346/536/364 424/539/443 419/567/437
f 422/535/440 424/539/443 425/538/442 421/534/439
f 381/483/400 331/431/351 332/430/350 341/441/361
f 331/431/351 381/483/400 420/532/438
f 324/422/342 314/412/332 464/604/253 463/605/252
f 470/603/481 352/454/374 353/453/373
f 457/589/475 432/547/451 453/580/471
f 428/543/447 459/592/477 431/544/448
f 397/509/415 411/523/429 398/510/416
f 349/450/370 411/523/429 348/447/367
f 407/519/425 402/514/420 405/517/423
f 383/485/402 402/514/420 329/428/348
f 456/586/474 455/582/473 404/583/422 407/587/425
f 385/486/403 338/438/358 456/586/474
f 456/586/474 338/438/358 339/437/357 426/541/445
f 426/541/445 339/437/357 333/432/352 421/534/439
f 385/486/403 456/586/474 405/588/423 406/584/424
f 402/514/420 403/515/421 347/446/366 342/440/360
f 465/606/254 217/358/48 272/357/298 235/310/263
f 232/607/255 465/606/254 235/310/263
f 240/315/266 241/314/7 244/318/11 245/317/268
f 224/319/10 251/325/20 248/320/269 243/316/267
f 233/608/256 232/607/255 235/310/263 236/309/262
f 234/609/257 233/608/256 236/309/262 270/354/296
f 271/355/297 226/356/47 225/353/44 269/352/295
f 274/361/51 282/368/58 279/367/305 273/360/299
f 276/363/301 284/372/61 234/609/257 270/354/296
f 387/492/168 221/493/171 303/392/322 298/390/320
f 307/400/327 219/399/87 466/610/258 293/380/314
f 293/380/314 466/610/258 295/611/73 291/381/313
f 312/411/93 464/604/253 314/412/332 311/409/330
f 316/495/336 230/612/172 228/491/169 299/389/319
f 382/484/401 231/500/175 467/613/259 388/498/406
f 467/613/259 229/496/173 317/415/335 388/498/406
f 222/494/170 468/614/260 302/393/323
f 324/422/342 463/605/252 223/499/176 323/423/343
f 306/397/84 304/396/326 301/394/324 302/393/323
f 468/614/260 306/397/84 302/393/323
f 102/145/134 99/144/133 469/296/251
f 469/296/251 99/144/133 145/205/188
f 353/453/373 360/459/379 408/521/427 470/603/481
f 408/521/427 401/513/419 400/512/418 470/603/481
